<?xml version="1.0" standalone="no"?>
<!DOCTYPE svg PUBLIC "-//W3C//DTD SVG 1.1//EN" "http://www.w3.org/Graphics/SVG/1.1/DTD/svg11.dtd">
<svg xmlns="http://www.w3.org/2000/svg" xmlns:xlink="http://www.w3.org/1999/xlink" width="375" zoomAndPan="magnify" viewBox="0 0 375 374.999991" height="375" preserveAspectRatio="xMidYMid meet" version="1.0"><defs><g/><clipPath id="16a049f0e2"><path d="M 179 50 L 215 50 L 215 86 L 179 86 Z M 179 50 " clip-rule="nonzero"/></clipPath><clipPath id="de41330d57"><path d="M 177.445312 53.769531 L 211.421875 48.367188 L 216.824219 82.347656 L 182.847656 87.746094 Z M 177.445312 53.769531 " clip-rule="nonzero"/></clipPath><clipPath id="95c670f44e"><path d="M 177.445312 53.769531 L 211.421875 48.367188 L 216.824219 82.347656 L 182.847656 87.746094 Z M 177.445312 53.769531 " clip-rule="nonzero"/></clipPath><clipPath id="c0e249422d"><path d="M 117 12 L 297 12 L 297 118 L 117 118 Z M 117 12 " clip-rule="nonzero"/></clipPath><clipPath id="af60b2e35c"><path d="M 103.941406 65.023438 L 269.679688 12.605469 L 296.980469 98.929688 L 131.238281 151.347656 Z M 103.941406 65.023438 " clip-rule="nonzero"/></clipPath><clipPath id="d0df6b663c"><path d="M 85.992188 8.269531 L 729.957031 -195.390625 L 785.105469 -21.019531 L 141.136719 182.644531 Z M 85.992188 8.269531 " clip-rule="nonzero"/></clipPath><clipPath id="f56bfde988"><path d="M 256 50 L 292 50 L 292 86 L 256 86 Z M 256 50 " clip-rule="nonzero"/></clipPath><clipPath id="782f293e18"><path d="M 254.308594 53.769531 L 288.285156 48.367188 L 293.6875 82.347656 L 259.710938 87.746094 Z M 254.308594 53.769531 " clip-rule="nonzero"/></clipPath><clipPath id="0e58ac5c3c"><path d="M 254.308594 53.769531 L 288.285156 48.367188 L 293.6875 82.347656 L 259.710938 87.746094 Z M 254.308594 53.769531 " clip-rule="nonzero"/></clipPath><clipPath id="18de150480"><path d="M 199 206 L 235 206 L 235 241 L 199 241 Z M 199 206 " clip-rule="nonzero"/></clipPath><clipPath id="23f1b462ca"><path d="M 197.46875 209.183594 L 231.445312 203.78125 L 236.847656 237.761719 L 202.871094 243.160156 Z M 197.46875 209.183594 " clip-rule="nonzero"/></clipPath><clipPath id="e114254716"><path d="M 197.46875 209.183594 L 231.445312 203.78125 L 236.847656 237.761719 L 202.871094 243.160156 Z M 197.46875 209.183594 " clip-rule="nonzero"/></clipPath><clipPath id="f27db4cfb8"><path d="M 114 206 L 150 206 L 150 241 L 114 241 Z M 114 206 " clip-rule="nonzero"/></clipPath><clipPath id="eef24f4fe0"><path d="M 112.386719 209.183594 L 146.363281 203.78125 L 151.765625 237.761719 L 117.785156 243.160156 Z M 112.386719 209.183594 " clip-rule="nonzero"/></clipPath><clipPath id="9cea72970d"><path d="M 112.386719 209.183594 L 146.363281 203.78125 L 151.765625 237.761719 L 117.785156 243.160156 Z M 112.386719 209.183594 " clip-rule="nonzero"/></clipPath><clipPath id="3a2a1bc79c"><path d="M 100 36 L 157 36 L 157 94 L 100 94 Z M 100 36 " clip-rule="nonzero"/></clipPath><clipPath id="9e9b27dc80"><path d="M 96.335938 41.738281 L 151.773438 32.925781 L 160.585938 88.363281 L 105.148438 97.175781 Z M 96.335938 41.738281 " clip-rule="nonzero"/></clipPath><clipPath id="ee0359e488"><path d="M 96.335938 41.738281 L 151.773438 32.925781 L 160.585938 88.363281 L 105.148438 97.175781 Z M 96.335938 41.738281 " clip-rule="nonzero"/></clipPath></defs><g fill="#292929" fill-opacity="1"><g transform="translate(8.65906, 338.214938)"><g><path d="M 8.046875 -72.890625 L 35.515625 -72.890625 C 40.316406 -72.890625 44.703125 -72.125 48.671875 -70.59375 C 52.640625 -69.0625 56.015625 -66.78125 58.796875 -63.75 C 61.578125 -60.726562 63.734375 -56.9375 65.265625 -52.375 C 66.804688 -47.8125 67.578125 -42.503906 67.578125 -36.453125 C 67.578125 -30.390625 66.804688 -25.078125 65.265625 -20.515625 C 63.734375 -15.960938 61.578125 -12.171875 58.796875 -9.140625 C 56.015625 -6.109375 52.640625 -3.828125 48.671875 -2.296875 C 44.703125 -0.765625 40.316406 0 35.515625 0 L 8.046875 0 Z M 35.515625 -14.09375 C 40.242188 -14.09375 43.960938 -15.414062 46.671875 -18.0625 C 49.390625 -20.707031 50.75 -24.957031 50.75 -30.8125 L 50.75 -42.09375 C 50.75 -47.9375 49.390625 -52.179688 46.671875 -54.828125 C 43.960938 -57.472656 40.242188 -58.796875 35.515625 -58.796875 L 23.921875 -58.796875 L 23.921875 -14.09375 Z M 35.515625 -14.09375 "/></g></g></g><g fill="#292929" fill-opacity="1"><g transform="translate(99.103851, 338.214938)"><g><path d="M 9.8125 0 L 9.8125 -12.640625 L 29.453125 -12.640625 L 29.453125 -61.515625 L 28.515625 -61.515625 L 13.6875 -42.09375 L 3.65625 -49.921875 L 21.09375 -72.890625 L 45.109375 -72.890625 L 45.109375 -12.640625 L 60.578125 -12.640625 L 60.578125 0 Z M 9.8125 0 "/></g></g></g><g fill="#292929" fill-opacity="1"><g transform="translate(179.418196, 338.214938)"><g><path d="M 16.1875 1.15625 C 13.050781 1.15625 10.734375 0.375 9.234375 -1.1875 C 7.742188 -2.757812 7 -4.765625 7 -7.203125 L 7 -9.296875 C 7 -11.734375 7.742188 -13.734375 9.234375 -15.296875 C 10.734375 -16.867188 13.050781 -17.65625 16.1875 -17.65625 C 19.320312 -17.65625 21.632812 -16.867188 23.125 -15.296875 C 24.625 -13.734375 25.375 -11.734375 25.375 -9.296875 L 25.375 -7.203125 C 25.375 -4.765625 24.625 -2.757812 23.125 -1.1875 C 21.632812 0.375 19.320312 1.15625 16.1875 1.15625 Z M 16.1875 1.15625 "/></g></g></g><g fill="#292929" fill-opacity="1"><g transform="translate(229.445651, 338.214938)"><g><path d="M 52.953125 0 L 47.734375 -17.34375 L 23.390625 -17.34375 L 18.171875 0 L 2.09375 0 L 26.109375 -72.890625 L 45.75 -72.890625 L 69.453125 0 Z M 35.71875 -58.484375 L 35.203125 -58.484375 L 27.15625 -30.8125 L 43.859375 -30.8125 Z M 35.71875 -58.484375 "/></g></g></g><g fill="#292929" fill-opacity="1"><g transform="translate(318.637189, 338.214938)"><g><path d="M 5.21875 0 L 5.21875 -12.640625 L 14.625 -12.640625 L 14.625 -60.265625 L 5.21875 -60.265625 L 5.21875 -72.890625 L 39.890625 -72.890625 L 39.890625 -60.265625 L 30.5 -60.265625 L 30.5 -12.640625 L 39.890625 -12.640625 L 39.890625 0 Z M 5.21875 0 "/></g></g></g><path stroke-linecap="butt" transform="matrix(0.498468, -1.733446, 1.740217, 0.500415, 164.280272, 168.446708)" fill="none" stroke-linejoin="miter" d="M -0.000630131 4.499104 L 36.143116 4.500853 " stroke="#292929" stroke-width="9" stroke-opacity="1" stroke-miterlimit="4"/><path stroke-linecap="butt" transform="matrix(-1.051839, 1.449442, -1.465514, -1.063503, 177.995544, 176.333427)" fill="none" stroke-linejoin="miter" d="M -0.000885794 4.499535 L 31.345397 4.500492 " stroke="#292929" stroke-width="9" stroke-opacity="1" stroke-miterlimit="4"/><path stroke-linecap="butt" transform="matrix(1.17521, 1.404447, -1.388692, 1.162026, 175.583153, 162.510225)" fill="none" stroke-linejoin="miter" d="M 0.000220503 4.49882 L 38.571309 4.499535 " stroke="#292929" stroke-width="9" stroke-opacity="1" stroke-miterlimit="4"/><g clip-path="url(#16a049f0e2)"><g clip-path="url(#de41330d57)"><g clip-path="url(#95c670f44e)"><path fill="#292929" d="M 214.125 65.355469 C 214.210938 65.914062 214.273438 66.472656 214.304688 67.035156 C 214.339844 67.597656 214.34375 68.160156 214.324219 68.722656 C 214.300781 69.285156 214.253906 69.847656 214.175781 70.40625 C 214.097656 70.964844 213.996094 71.515625 213.863281 72.0625 C 213.734375 72.613281 213.574219 73.152344 213.390625 73.683594 C 213.207031 74.21875 212.996094 74.738281 212.761719 75.25 C 212.523438 75.761719 212.265625 76.261719 211.980469 76.746094 C 211.695312 77.234375 211.386719 77.707031 211.058594 78.160156 C 210.726562 78.617188 210.375 79.054688 210 79.476562 C 209.625 79.898438 209.230469 80.300781 208.820312 80.683594 C 208.40625 81.066406 207.972656 81.425781 207.523438 81.765625 C 207.074219 82.109375 206.609375 82.425781 206.132812 82.71875 C 205.652344 83.015625 205.15625 83.285156 204.652344 83.53125 C 204.144531 83.777344 203.625 83.996094 203.097656 84.191406 C 202.570312 84.386719 202.03125 84.558594 201.488281 84.699219 C 200.941406 84.84375 200.390625 84.957031 199.835938 85.046875 C 199.277344 85.136719 198.71875 85.195312 198.15625 85.230469 C 197.59375 85.261719 197.03125 85.269531 196.46875 85.246094 C 195.90625 85.226562 195.34375 85.175781 194.789062 85.097656 C 194.230469 85.023438 193.675781 84.917969 193.128906 84.785156 C 192.582031 84.65625 192.039062 84.496094 191.507812 84.3125 C 190.976562 84.128906 190.453125 83.917969 189.941406 83.683594 C 189.429688 83.449219 188.929688 83.1875 188.445312 82.902344 C 187.957031 82.617188 187.488281 82.3125 187.03125 81.980469 C 186.574219 81.648438 186.136719 81.296875 185.714844 80.921875 C 185.292969 80.550781 184.890625 80.15625 184.507812 79.742188 C 184.125 79.328125 183.765625 78.898438 183.425781 78.449219 C 183.085938 78 182.765625 77.535156 182.472656 77.054688 C 182.179688 76.574219 181.90625 76.082031 181.660156 75.574219 C 181.414062 75.066406 181.195312 74.550781 181 74.019531 C 180.804688 73.492188 180.636719 72.957031 180.492188 72.410156 C 180.351562 71.867188 180.234375 71.316406 180.144531 70.757812 C 180.058594 70.203125 179.996094 69.640625 179.964844 69.082031 C 179.929688 68.519531 179.925781 67.953125 179.945312 67.390625 C 179.96875 66.828125 180.015625 66.269531 180.09375 65.710938 C 180.171875 65.152344 180.273438 64.597656 180.40625 64.050781 C 180.535156 63.503906 180.695312 62.964844 180.878906 62.429688 C 181.0625 61.898438 181.273438 61.375 181.507812 60.863281 C 181.746094 60.351562 182.003906 59.855469 182.289062 59.367188 C 182.574219 58.882812 182.882812 58.410156 183.210938 57.953125 C 183.542969 57.5 183.894531 57.058594 184.269531 56.636719 C 184.644531 56.21875 185.039062 55.816406 185.449219 55.433594 C 185.863281 55.050781 186.296875 54.6875 186.746094 54.347656 C 187.195312 54.007812 187.660156 53.691406 188.136719 53.394531 C 188.617188 53.101562 189.113281 52.832031 189.617188 52.585938 C 190.125 52.339844 190.644531 52.117188 191.171875 51.921875 C 191.699219 51.726562 192.238281 51.558594 192.78125 51.414062 C 193.328125 51.273438 193.878906 51.15625 194.433594 51.070312 C 194.992188 50.980469 195.550781 50.917969 196.113281 50.886719 C 196.675781 50.851562 197.238281 50.847656 197.800781 50.867188 C 198.363281 50.890625 198.925781 50.941406 199.480469 51.015625 C 200.039062 51.09375 200.59375 51.199219 201.140625 51.328125 C 201.6875 51.460938 202.230469 51.617188 202.761719 51.800781 C 203.292969 51.988281 203.816406 52.195312 204.328125 52.433594 C 204.839844 52.667969 205.339844 52.925781 205.824219 53.210938 C 206.3125 53.496094 206.78125 53.804688 207.238281 54.136719 C 207.695312 54.464844 208.132812 54.820312 208.554688 55.191406 C 208.976562 55.566406 209.378906 55.960938 209.761719 56.375 C 210.144531 56.789062 210.503906 57.21875 210.84375 57.667969 C 211.183594 58.117188 211.503906 58.582031 211.796875 59.0625 C 212.089844 59.542969 212.363281 60.035156 212.609375 60.542969 C 212.855469 61.046875 213.074219 61.566406 213.269531 62.09375 C 213.464844 62.625 213.632812 63.160156 213.777344 63.707031 C 213.917969 64.25 214.035156 64.800781 214.125 65.355469 Z M 214.125 65.355469 " fill-opacity="1" fill-rule="nonzero"/></g></g></g><g clip-path="url(#c0e249422d)"><g clip-path="url(#af60b2e35c)"><g clip-path="url(#d0df6b663c)"><path fill="#292929" d="M 130.699219 35.503906 C 125.558594 82.125 135.167969 102.3125 155.257812 105.375 C 189.96875 110.660156 255.445312 71.894531 331.761719 26.71875 C 484.878906 -63.933594 680.476562 -179.710938 780.574219 -28.148438 C 782.378906 -25.382812 781.601562 -21.675781 778.839844 -19.875 C 776.066406 -18.070312 772.359375 -18.84375 770.558594 -21.597656 C 676.765625 -163.609375 486.679688 -51.085938 337.875 37.003906 C 259.59375 83.355469 192.40625 123.109375 153.457031 117.175781 C 126.011719 113.007812 112.613281 88.617188 118.976562 32.773438 C 119.835938 25.285156 119.617188 12.460938 127.90625 9.839844 C 133.757812 7.988281 140.308594 12.203125 142.539062 19.257812 C 144.769531 26.308594 141.832031 33.523438 135.984375 35.375 C 134.238281 35.925781 132.441406 35.941406 130.699219 35.503906 Z M 130.699219 35.503906 " fill-opacity="1" fill-rule="evenodd"/></g></g></g><g clip-path="url(#f56bfde988)"><g clip-path="url(#782f293e18)"><g clip-path="url(#0e58ac5c3c)"><path fill="#538083" d="M 290.988281 65.355469 C 291.074219 65.914062 291.136719 66.472656 291.167969 67.035156 C 291.203125 67.597656 291.210938 68.160156 291.1875 68.722656 C 291.164062 69.285156 291.117188 69.847656 291.039062 70.40625 C 290.960938 70.964844 290.859375 71.515625 290.726562 72.0625 C 290.597656 72.613281 290.4375 73.152344 290.253906 73.683594 C 290.070312 74.21875 289.859375 74.738281 289.625 75.25 C 289.386719 75.761719 289.128906 76.261719 288.84375 76.746094 C 288.558594 77.234375 288.25 77.707031 287.921875 78.160156 C 287.589844 78.617188 287.238281 79.054688 286.863281 79.476562 C 286.488281 79.898438 286.09375 80.300781 285.683594 80.683594 C 285.269531 81.066406 284.835938 81.425781 284.386719 81.765625 C 283.9375 82.109375 283.476562 82.425781 282.996094 82.71875 C 282.515625 83.015625 282.019531 83.285156 281.515625 83.53125 C 281.007812 83.777344 280.488281 83.996094 279.960938 84.191406 C 279.433594 84.386719 278.894531 84.558594 278.351562 84.699219 C 277.804688 84.84375 277.253906 84.957031 276.699219 85.046875 C 276.140625 85.136719 275.582031 85.195312 275.019531 85.230469 C 274.457031 85.261719 273.894531 85.269531 273.332031 85.246094 C 272.769531 85.226562 272.210938 85.175781 271.652344 85.097656 C 271.09375 85.023438 270.539062 84.917969 269.992188 84.785156 C 269.445312 84.65625 268.902344 84.496094 268.371094 84.3125 C 267.839844 84.128906 267.316406 83.917969 266.804688 83.683594 C 266.292969 83.449219 265.792969 83.1875 265.308594 82.902344 C 264.820312 82.617188 264.351562 82.3125 263.894531 81.980469 C 263.4375 81.648438 263 81.296875 262.578125 80.921875 C 262.15625 80.550781 261.753906 80.15625 261.371094 79.742188 C 260.992188 79.328125 260.628906 78.898438 260.289062 78.449219 C 259.949219 78 259.628906 77.535156 259.335938 77.054688 C 259.042969 76.574219 258.769531 76.082031 258.523438 75.574219 C 258.277344 75.066406 258.058594 74.550781 257.863281 74.019531 C 257.667969 73.492188 257.5 72.957031 257.355469 72.410156 C 257.214844 71.867188 257.097656 71.316406 257.007812 70.757812 C 256.921875 70.203125 256.859375 69.640625 256.828125 69.082031 C 256.792969 68.519531 256.789062 67.953125 256.808594 67.390625 C 256.832031 66.828125 256.878906 66.269531 256.957031 65.710938 C 257.035156 65.152344 257.136719 64.597656 257.269531 64.050781 C 257.402344 63.503906 257.558594 62.964844 257.742188 62.429688 C 257.925781 61.898438 258.136719 61.375 258.371094 60.863281 C 258.609375 60.351562 258.867188 59.855469 259.152344 59.367188 C 259.4375 58.882812 259.746094 58.410156 260.074219 57.953125 C 260.40625 57.5 260.757812 57.058594 261.132812 56.636719 C 261.507812 56.21875 261.902344 55.816406 262.3125 55.433594 C 262.726562 55.050781 263.160156 54.6875 263.609375 54.347656 C 264.058594 54.007812 264.523438 53.691406 265.003906 53.394531 C 265.480469 53.101562 265.976562 52.832031 266.484375 52.585938 C 266.988281 52.339844 267.507812 52.117188 268.035156 51.921875 C 268.5625 51.726562 269.101562 51.558594 269.644531 51.414062 C 270.191406 51.273438 270.742188 51.15625 271.296875 51.070312 C 271.855469 50.980469 272.414062 50.917969 272.976562 50.886719 C 273.539062 50.851562 274.101562 50.847656 274.664062 50.867188 C 275.226562 50.890625 275.789062 50.941406 276.34375 51.015625 C 276.902344 51.09375 277.457031 51.199219 278.003906 51.328125 C 278.550781 51.460938 279.09375 51.617188 279.625 51.800781 C 280.15625 51.988281 280.679688 52.195312 281.191406 52.433594 C 281.703125 52.667969 282.203125 52.925781 282.6875 53.210938 C 283.175781 53.496094 283.644531 53.804688 284.101562 54.136719 C 284.558594 54.464844 284.996094 54.820312 285.417969 55.191406 C 285.839844 55.566406 286.242188 55.960938 286.625 56.375 C 287.007812 56.789062 287.367188 57.21875 287.707031 57.667969 C 288.046875 58.117188 288.367188 58.582031 288.660156 59.0625 C 288.953125 59.542969 289.226562 60.035156 289.472656 60.542969 C 289.71875 61.046875 289.9375 61.566406 290.132812 62.09375 C 290.328125 62.625 290.496094 63.160156 290.640625 63.707031 C 290.78125 64.25 290.898438 64.800781 290.988281 65.355469 Z M 290.988281 65.355469 " fill-opacity="1" fill-rule="nonzero"/></g></g></g><g clip-path="url(#18de150480)"><g clip-path="url(#23f1b462ca)"><g clip-path="url(#e114254716)"><path fill="#538083" d="M 234.148438 220.773438 C 234.234375 221.328125 234.296875 221.886719 234.328125 222.449219 C 234.363281 223.011719 234.367188 223.574219 234.347656 224.136719 C 234.324219 224.699219 234.277344 225.261719 234.199219 225.820312 C 234.121094 226.378906 234.019531 226.929688 233.886719 227.476562 C 233.753906 228.027344 233.597656 228.566406 233.414062 229.097656 C 233.230469 229.632812 233.019531 230.152344 232.785156 230.664062 C 232.546875 231.175781 232.289062 231.675781 232.003906 232.160156 C 231.71875 232.648438 231.410156 233.121094 231.082031 233.574219 C 230.75 234.03125 230.398438 234.46875 230.023438 234.890625 C 229.648438 235.3125 229.253906 235.714844 228.84375 236.097656 C 228.429688 236.480469 227.996094 236.839844 227.546875 237.183594 C 227.097656 237.523438 226.632812 237.839844 226.152344 238.132812 C 225.675781 238.429688 225.179688 238.699219 224.671875 238.945312 C 224.167969 239.191406 223.648438 239.414062 223.121094 239.609375 C 222.59375 239.804688 222.054688 239.972656 221.511719 240.113281 C 220.964844 240.257812 220.414062 240.371094 219.859375 240.460938 C 219.300781 240.550781 218.742188 240.609375 218.179688 240.644531 C 217.617188 240.675781 217.054688 240.683594 216.492188 240.660156 C 215.929688 240.640625 215.367188 240.589844 214.8125 240.511719 C 214.253906 240.4375 213.699219 240.332031 213.152344 240.199219 C 212.605469 240.070312 212.0625 239.910156 211.53125 239.726562 C 211 239.542969 210.476562 239.332031 209.964844 239.097656 C 209.453125 238.863281 208.953125 238.601562 208.46875 238.316406 C 207.980469 238.03125 207.511719 237.726562 207.054688 237.394531 C 206.597656 237.0625 206.160156 236.710938 205.738281 236.335938 C 205.316406 235.964844 204.914062 235.570312 204.53125 235.15625 C 204.148438 234.742188 203.789062 234.3125 203.449219 233.863281 C 203.109375 233.414062 202.789062 232.949219 202.496094 232.46875 C 202.203125 231.988281 201.929688 231.496094 201.683594 230.988281 C 201.4375 230.480469 201.21875 229.964844 201.023438 229.433594 C 200.828125 228.90625 200.660156 228.371094 200.515625 227.824219 C 200.375 227.28125 200.257812 226.730469 200.167969 226.171875 C 200.082031 225.617188 200.019531 225.058594 199.988281 224.496094 C 199.953125 223.933594 199.945312 223.371094 199.96875 222.804688 C 199.992188 222.242188 200.039062 221.683594 200.117188 221.125 C 200.195312 220.566406 200.296875 220.011719 200.429688 219.464844 C 200.558594 218.917969 200.71875 218.378906 200.902344 217.84375 C 201.085938 217.3125 201.296875 216.789062 201.53125 216.277344 C 201.769531 215.765625 202.027344 215.269531 202.3125 214.78125 C 202.597656 214.296875 202.90625 213.824219 203.234375 213.367188 C 203.566406 212.914062 203.917969 212.472656 204.292969 212.054688 C 204.667969 211.632812 205.0625 211.230469 205.472656 210.847656 C 205.886719 210.464844 206.320312 210.101562 206.769531 209.761719 C 207.21875 209.421875 207.679688 209.105469 208.160156 208.808594 C 208.640625 208.515625 209.136719 208.246094 209.640625 208 C 210.148438 207.753906 210.667969 207.53125 211.195312 207.335938 C 211.722656 207.140625 212.261719 206.972656 212.804688 206.828125 C 213.351562 206.6875 213.902344 206.570312 214.457031 206.484375 C 215.015625 206.394531 215.574219 206.332031 216.136719 206.300781 C 216.699219 206.265625 217.261719 206.261719 217.824219 206.28125 C 218.386719 206.304688 218.945312 206.355469 219.503906 206.429688 C 220.0625 206.507812 220.617188 206.613281 221.164062 206.742188 C 221.710938 206.875 222.253906 207.03125 222.785156 207.214844 C 223.316406 207.402344 223.839844 207.609375 224.351562 207.847656 C 224.863281 208.082031 225.363281 208.34375 225.847656 208.625 C 226.335938 208.910156 226.804688 209.21875 227.261719 209.550781 C 227.71875 209.878906 228.15625 210.234375 228.578125 210.605469 C 229 210.980469 229.402344 211.375 229.785156 211.789062 C 230.164062 212.203125 230.527344 212.632812 230.867188 213.082031 C 231.207031 213.53125 231.527344 213.996094 231.820312 214.476562 C 232.113281 214.957031 232.386719 215.449219 232.632812 215.957031 C 232.878906 216.464844 233.097656 216.980469 233.292969 217.507812 C 233.488281 218.039062 233.65625 218.574219 233.800781 219.121094 C 233.941406 219.664062 234.058594 220.214844 234.148438 220.773438 Z M 234.148438 220.773438 " fill-opacity="1" fill-rule="nonzero"/></g></g></g><g clip-path="url(#f27db4cfb8)"><g clip-path="url(#eef24f4fe0)"><g clip-path="url(#9cea72970d)"><path fill="#538083" d="M 149.0625 220.773438 C 149.152344 221.328125 149.210938 221.886719 149.246094 222.449219 C 149.28125 223.011719 149.285156 223.574219 149.261719 224.136719 C 149.242188 224.699219 149.191406 225.261719 149.117188 225.820312 C 149.039062 226.378906 148.933594 226.929688 148.804688 227.476562 C 148.671875 228.027344 148.515625 228.566406 148.332031 229.097656 C 148.144531 229.632812 147.9375 230.152344 147.699219 230.664062 C 147.464844 231.175781 147.203125 231.675781 146.921875 232.160156 C 146.636719 232.648438 146.328125 233.121094 145.996094 233.574219 C 145.664062 234.03125 145.3125 234.46875 144.941406 234.890625 C 144.566406 235.3125 144.171875 235.714844 143.757812 236.097656 C 143.34375 236.480469 142.914062 236.839844 142.464844 237.183594 C 142.015625 237.523438 141.550781 237.839844 141.070312 238.132812 C 140.589844 238.429688 140.097656 238.699219 139.589844 238.945312 C 139.082031 239.191406 138.566406 239.414062 138.039062 239.609375 C 137.507812 239.804688 136.972656 239.972656 136.425781 240.113281 C 135.882812 240.257812 135.332031 240.371094 134.773438 240.460938 C 134.21875 240.550781 133.660156 240.609375 133.097656 240.644531 C 132.535156 240.675781 131.972656 240.683594 131.410156 240.660156 C 130.847656 240.640625 130.285156 240.589844 129.726562 240.511719 C 129.167969 240.4375 128.617188 240.332031 128.066406 240.199219 C 127.519531 240.070312 126.980469 239.910156 126.449219 239.726562 C 125.914062 239.542969 125.394531 239.332031 124.882812 239.097656 C 124.371094 238.863281 123.871094 238.601562 123.382812 238.316406 C 122.898438 238.03125 122.425781 237.726562 121.972656 237.394531 C 121.515625 237.0625 121.078125 236.710938 120.65625 236.335938 C 120.234375 235.964844 119.832031 235.570312 119.449219 235.15625 C 119.066406 234.742188 118.707031 234.3125 118.363281 233.863281 C 118.023438 233.414062 117.707031 232.949219 117.414062 232.46875 C 117.117188 231.988281 116.847656 231.496094 116.601562 230.988281 C 116.355469 230.480469 116.132812 229.964844 115.9375 229.433594 C 115.742188 228.90625 115.574219 228.371094 115.433594 227.824219 C 115.289062 227.28125 115.175781 226.730469 115.085938 226.171875 C 114.996094 225.617188 114.9375 225.058594 114.902344 224.496094 C 114.871094 223.933594 114.863281 223.371094 114.886719 222.804688 C 114.90625 222.242188 114.957031 221.683594 115.035156 221.125 C 115.109375 220.566406 115.214844 220.011719 115.34375 219.464844 C 115.476562 218.917969 115.632812 218.378906 115.820312 217.84375 C 116.003906 217.3125 116.214844 216.789062 116.449219 216.277344 C 116.683594 215.765625 116.945312 215.269531 117.230469 214.78125 C 117.511719 214.296875 117.820312 213.824219 118.152344 213.367188 C 118.484375 212.914062 118.835938 212.472656 119.210938 212.054688 C 119.582031 211.632812 119.976562 211.230469 120.390625 210.847656 C 120.804688 210.464844 121.234375 210.101562 121.683594 209.761719 C 122.132812 209.421875 122.597656 209.105469 123.078125 208.808594 C 123.558594 208.515625 124.050781 208.246094 124.558594 208 C 125.066406 207.753906 125.582031 207.53125 126.113281 207.335938 C 126.640625 207.140625 127.175781 206.972656 127.722656 206.828125 C 128.265625 206.6875 128.816406 206.570312 129.375 206.484375 C 129.929688 206.394531 130.488281 206.332031 131.050781 206.300781 C 131.613281 206.265625 132.175781 206.261719 132.738281 206.28125 C 133.304688 206.304688 133.863281 206.355469 134.421875 206.429688 C 134.980469 206.507812 135.53125 206.613281 136.082031 206.742188 C 136.628906 206.875 137.167969 207.03125 137.703125 207.214844 C 138.234375 207.402344 138.753906 207.609375 139.265625 207.847656 C 139.777344 208.082031 140.277344 208.34375 140.765625 208.625 C 141.25 208.910156 141.722656 209.21875 142.179688 209.550781 C 142.632812 209.878906 143.074219 210.234375 143.492188 210.605469 C 143.914062 210.980469 144.316406 211.375 144.699219 211.789062 C 145.082031 212.203125 145.445312 212.632812 145.785156 213.082031 C 146.125 213.53125 146.441406 213.996094 146.738281 214.476562 C 147.03125 214.957031 147.300781 215.449219 147.546875 215.957031 C 147.792969 216.464844 148.015625 216.980469 148.210938 217.507812 C 148.40625 218.039062 148.574219 218.574219 148.714844 219.121094 C 148.859375 219.664062 148.976562 220.214844 149.0625 220.773438 Z M 149.0625 220.773438 " fill-opacity="1" fill-rule="nonzero"/></g></g></g><g clip-path="url(#3a2a1bc79c)"><g clip-path="url(#9e9b27dc80)"><g clip-path="url(#ee0359e488)"><path fill="#ec7357" d="M 156.179688 60.644531 C 156.324219 61.550781 156.421875 62.464844 156.476562 63.382812 C 156.53125 64.300781 156.542969 65.21875 156.507812 66.136719 C 156.472656 67.054688 156.390625 67.96875 156.265625 68.878906 C 156.140625 69.792969 155.96875 70.695312 155.757812 71.585938 C 155.542969 72.480469 155.285156 73.363281 154.984375 74.230469 C 154.683594 75.101562 154.339844 75.953125 153.957031 76.785156 C 153.570312 77.621094 153.148438 78.4375 152.683594 79.230469 C 152.21875 80.023438 151.71875 80.792969 151.175781 81.535156 C 150.636719 82.277344 150.0625 82.996094 149.453125 83.683594 C 148.839844 84.371094 148.199219 85.027344 147.523438 85.648438 C 146.851562 86.273438 146.144531 86.863281 145.414062 87.417969 C 144.679688 87.972656 143.921875 88.492188 143.140625 88.972656 C 142.355469 89.453125 141.550781 89.894531 140.722656 90.296875 C 139.898438 90.699219 139.054688 91.058594 138.191406 91.378906 C 137.328125 91.695312 136.453125 91.972656 135.5625 92.203125 C 134.675781 92.4375 133.777344 92.625 132.867188 92.769531 C 131.960938 92.914062 131.046875 93.011719 130.128906 93.066406 C 129.210938 93.121094 128.292969 93.132812 127.375 93.097656 C 126.457031 93.0625 125.542969 92.980469 124.632812 92.855469 C 123.722656 92.730469 122.820312 92.558594 121.925781 92.34375 C 121.03125 92.132812 120.148438 91.875 119.28125 91.574219 C 118.414062 91.273438 117.5625 90.929688 116.726562 90.546875 C 115.890625 90.160156 115.078125 89.738281 114.28125 89.273438 C 113.488281 88.808594 112.722656 88.304688 111.976562 87.765625 C 111.234375 87.226562 110.519531 86.652344 109.832031 86.042969 C 109.144531 85.429688 108.488281 84.789062 107.863281 84.113281 C 107.238281 83.4375 106.648438 82.734375 106.09375 82.003906 C 105.539062 81.269531 105.019531 80.511719 104.539062 79.730469 C 104.058594 78.945312 103.617188 78.140625 103.214844 77.3125 C 102.8125 76.488281 102.453125 75.640625 102.136719 74.78125 C 101.816406 73.917969 101.542969 73.042969 101.308594 72.152344 C 101.074219 71.261719 100.886719 70.363281 100.742188 69.457031 C 100.597656 68.550781 100.5 67.636719 100.445312 66.71875 C 100.390625 65.800781 100.378906 64.882812 100.417969 63.964844 C 100.453125 63.046875 100.53125 62.132812 100.65625 61.222656 C 100.78125 60.308594 100.953125 59.40625 101.167969 58.515625 C 101.382812 57.621094 101.636719 56.738281 101.9375 55.871094 C 102.238281 55 102.582031 54.148438 102.964844 53.316406 C 103.351562 52.480469 103.773438 51.664062 104.238281 50.871094 C 104.703125 50.078125 105.207031 49.308594 105.746094 48.566406 C 106.285156 47.824219 106.859375 47.105469 107.472656 46.417969 C 108.082031 45.730469 108.722656 45.074219 109.398438 44.453125 C 110.074219 43.828125 110.777344 43.238281 111.507812 42.683594 C 112.242188 42.128906 113 41.609375 113.785156 41.128906 C 114.566406 40.648438 115.371094 40.207031 116.199219 39.804688 C 117.027344 39.402344 117.871094 39.042969 118.734375 38.726562 C 119.59375 38.40625 120.46875 38.128906 121.359375 37.898438 C 122.25 37.664062 123.148438 37.476562 124.054688 37.332031 C 124.964844 37.1875 125.875 37.089844 126.792969 37.035156 C 127.710938 36.980469 128.628906 36.96875 129.546875 37.003906 C 130.464844 37.042969 131.378906 37.121094 132.292969 37.246094 C 133.203125 37.371094 134.105469 37.542969 135 37.757812 C 135.890625 37.96875 136.773438 38.226562 137.640625 38.527344 C 138.511719 38.828125 139.363281 39.171875 140.199219 39.554688 C 141.03125 39.941406 141.847656 40.363281 142.640625 40.828125 C 143.433594 41.292969 144.203125 41.796875 144.945312 42.335938 C 145.691406 42.875 146.40625 43.449219 147.09375 44.058594 C 147.78125 44.671875 148.4375 45.3125 149.0625 45.988281 C 149.683594 46.664062 150.273438 47.367188 150.828125 48.097656 C 151.386719 48.832031 151.902344 49.589844 152.382812 50.371094 C 152.863281 51.15625 153.304688 51.960938 153.707031 52.789062 C 154.109375 53.613281 154.46875 54.460938 154.789062 55.320312 C 155.105469 56.183594 155.382812 57.058594 155.613281 57.949219 C 155.847656 58.839844 156.035156 59.738281 156.179688 60.644531 Z M 156.179688 60.644531 " fill-opacity="1" fill-rule="nonzero"/></g></g></g></svg>